<svg xmlns="http://www.w3.org/2000/svg" viewBox="0 0 494 329" role="img" aria-label="DERANT">
  <defs>
    <linearGradient id="derantBlue" x1="170" y1="60" x2="330" y2="245" gradientUnits="userSpaceOnUse">
      <stop offset="0" stop-color="#2BAFFF"/>
      <stop offset="0.55" stop-color="#2686FF"/>
      <stop offset="1" stop-color="#3D55F5"/>
    </linearGradient>
  </defs>
  <path fill="url(#derantBlue)" fill-rule="evenodd" d="
M 179.0 87.0 L 152.0 87.0 L 150.0 89.0 L 150.0 201.0 L 151.0 195.0 L 157.0 177.0 L 165.0 160.0 L 171.0 151.0 L 181.0 140.0 L 181.0 89.0 Z
M 153.0 18.0 L 150.0 21.0 L 150.0 48.0 L 152.0 50.0 L 247.0 50.0 L 261.0 53.0 L 268.0 56.0 L 280.0 64.0 L 290.0 75.0 L 294.0 81.0 L 300.0 96.0 L 302.0 109.0 L 302.0 116.0 L 299.0 131.0 L 293.0 144.0 L 289.0 150.0 L 277.0 162.0 L 265.0 169.0 L 251.0 173.0 L 191.0 173.0 L 171.0 193.0 L 155.0 204.0 L 165.0 205.0 L 254.0 204.0 L 265.0 202.0 L 279.0 197.0 L 290.0 191.0 L 302.0 182.0 L 314.0 169.0 L 323.0 155.0 L 330.0 137.0 L 333.0 121.0 L 333.0 103.0 L 329.0 83.0 L 324.0 70.0 L 317.0 58.0 L 309.0 48.0 L 297.0 37.0 L 283.0 28.0 L 265.0 21.0 L 247.0 18.0 Z
  "/>
  <path fill="#ffffff" fill-rule="evenodd" d="
M 410.0 253.0 L 410.0 261.0 L 429.0 262.0 L 429.0 310.0 L 439.0 310.0 L 440.0 261.0 L 458.0 261.0 L 458.0 253.0 Z
M 331.0 253.0 L 331.0 310.0 L 340.0 310.0 L 341.0 268.0 L 350.0 280.0 L 370.0 310.0 L 381.0 310.0 L 381.0 253.0 L 371.0 253.0 L 370.0 294.0 L 363.0 283.0 L 360.0 280.0 L 348.0 261.0 L 343.0 255.0 L 343.0 254.0 Z
M 268.0 253.0 L 266.0 260.0 L 261.0 270.0 L 258.0 280.0 L 247.0 305.0 L 246.0 310.0 L 256.0 309.0 L 260.0 298.0 L 286.0 297.0 L 289.0 301.0 L 292.0 310.0 L 302.0 310.0 L 301.0 306.0 L 297.0 298.0 L 296.0 293.0 L 290.0 280.0 L 286.0 267.0 L 280.0 253.0 Z
M 274.0 263.0 L 276.0 266.0 L 284.0 288.0 L 265.0 286.0 L 265.0 284.0 L 267.0 281.0 L 272.0 265.0 Z
M 172.0 253.0 L 172.0 310.0 L 182.0 310.0 L 183.0 289.0 L 196.0 290.0 L 199.0 296.0 L 206.0 306.0 L 207.0 309.0 L 219.0 310.0 L 206.0 290.0 L 207.0 287.0 L 209.0 287.0 L 212.0 285.0 L 216.0 281.0 L 218.0 277.0 L 219.0 272.0 L 218.0 265.0 L 214.0 258.0 L 210.0 255.0 L 205.0 253.0 Z
M 183.0 261.0 L 200.0 261.0 L 203.0 262.0 L 209.0 269.0 L 209.0 273.0 L 208.0 276.0 L 202.0 281.0 L 182.0 280.0 Z
M 100.0 253.0 L 100.0 310.0 L 141.0 310.0 L 141.0 302.0 L 109.0 301.0 L 109.0 287.0 L 111.0 285.0 L 137.0 285.0 L 137.0 277.0 L 109.0 276.0 L 109.0 263.0 L 111.0 261.0 L 141.0 261.0 L 141.0 253.0 Z
M 19.0 253.0 L 19.0 310.0 L 49.0 310.0 L 58.0 306.0 L 67.0 296.0 L 70.0 286.0 L 70.0 277.0 L 69.0 272.0 L 66.0 265.0 L 58.0 257.0 L 48.0 253.0 Z
M 29.0 261.0 L 45.0 261.0 L 52.0 264.0 L 57.0 269.0 L 60.0 276.0 L 60.0 287.0 L 57.0 294.0 L 52.0 299.0 L 45.0 302.0 L 28.0 301.0 Z
M 463.0 191.0 L 461.0 210.0 L 457.0 207.0 L 454.0 207.0 L 456.0 211.0 L 464.0 219.0 L 466.0 220.0 L 470.0 220.0 L 472.0 219.0 L 476.0 214.0 L 474.0 201.0 L 473.0 206.0 L 470.0 200.0 L 469.0 205.0 L 468.0 199.0 L 466.0 199.0 L 465.0 205.0 Z
  "/>
</svg>
